<?xml version="1.0" encoding="UTF-8" standalone="no"?>
<!DOCTYPE svg PUBLIC "-//W3C//DTD SVG 1.1//EN"
 "http://www.w3.org/Graphics/SVG/1.1/DTD/svg11.dtd">
<!-- Generated by graphviz version 2.47.3 (20210619.1520)
 -->
<!-- Title: dependencies Pages: 1 -->
<svg width="334pt" height="174pt"
 viewBox="0.00 0.00 334.00 173.80" xmlns="http://www.w3.org/2000/svg" xmlns:xlink="http://www.w3.org/1999/xlink">
<g id="graph0" class="graph" transform="scale(1 1) rotate(0) translate(4 169.8)">
<title>dependencies</title>
<polygon fill="white" stroke="transparent" points="-4,4 -4,-169.8 330,-169.8 330,4 -4,4"/>
<text text-anchor="middle" x="163" y="-8.2" font-family="sans-serif" font-size="14.00">dependencies</text>
<g id="clust1" class="cluster">
<title>cluster_UserModule</title>
<polygon fill="none" stroke="black" stroke-dasharray="1,5" points="8,-32.8 8,-157.8 318,-157.8 318,-32.8 8,-32.8"/>
</g>
<g id="clust6" class="cluster">
<title>cluster_UserModule_providers</title>
<polygon fill="none" stroke="black" points="16,-40.8 16,-92.8 310,-92.8 310,-40.8 16,-40.8"/>
</g>
<!-- UserRepository -->
<g id="node1" class="node">
<title>UserRepository</title>
<ellipse fill="#fdb462" stroke="black" cx="230" cy="-66.8" rx="71.79" ry="18"/>
<text text-anchor="middle" x="230" y="-62.6" font-family="Times,serif" font-size="14.00">UserRepository</text>
</g>
<!-- UserModule -->
<g id="node3" class="node">
<title>UserModule</title>
<polygon fill="#8dd3c7" stroke="black" points="198.98,-149.8 195.98,-153.8 174.98,-153.8 171.98,-149.8 113.02,-149.8 113.02,-113.8 198.98,-113.8 198.98,-149.8"/>
<text text-anchor="middle" x="156" y="-127.6" font-family="Times,serif" font-size="14.00">UserModule</text>
</g>
<!-- UserRepository&#45;&gt;UserModule -->
<g id="edge1" class="edge">
<title>UserRepository&#45;&gt;UserModule</title>
<path fill="none" stroke="black" d="M178.67,-79.64C178.67,-79.64 178.67,-103.32 178.67,-103.32"/>
<polygon fill="black" stroke="black" points="175.17,-103.32 178.67,-113.32 182.17,-103.32 175.17,-103.32"/>
</g>
<!-- UserService -->
<g id="node2" class="node">
<title>UserService</title>
<ellipse fill="#fdb462" stroke="black" cx="82" cy="-66.8" rx="58.44" ry="18"/>
<text text-anchor="middle" x="82" y="-62.6" font-family="Times,serif" font-size="14.00">UserService</text>
</g>
<!-- UserService&#45;&gt;UserModule -->
<g id="edge2" class="edge">
<title>UserService&#45;&gt;UserModule</title>
<path fill="none" stroke="black" d="M126.62,-78.42C126.62,-78.42 126.62,-103.65 126.62,-103.65"/>
<polygon fill="black" stroke="black" points="123.12,-103.65 126.62,-113.65 130.12,-103.65 123.12,-103.65"/>
</g>
</g>
</svg>
