<?xml version="1.0" encoding="UTF-8" standalone="no"?>
<!DOCTYPE svg PUBLIC "-//W3C//DTD SVG 1.1//EN"
 "http://www.w3.org/Graphics/SVG/1.1/DTD/svg11.dtd">
<!-- Generated by graphviz version 2.47.3 (20210619.1520)
 -->
<!-- Title: dependencies Pages: 1 -->
<svg width="467pt" height="247pt"
 viewBox="0.00 0.00 467.00 246.80" xmlns="http://www.w3.org/2000/svg" xmlns:xlink="http://www.w3.org/1999/xlink">
<g id="graph0" class="graph" transform="scale(1 1) rotate(0) translate(4 242.8)">
<title>dependencies</title>
<polygon fill="white" stroke="transparent" points="-4,4 -4,-242.8 463,-242.8 463,4 -4,4"/>
<text text-anchor="middle" x="229.5" y="-8.2" font-family="sans-serif" font-size="14.00">dependencies</text>
<g id="clust1" class="cluster">
<title>cluster_AuthModule</title>
<polygon fill="none" stroke="black" stroke-dasharray="1,5" points="8,-32.8 8,-230.8 451,-230.8 451,-32.8 8,-32.8"/>
</g>
<g id="clust4" class="cluster">
<title>cluster_AuthModule_exports</title>
<polygon fill="none" stroke="black" points="189,-170.8 189,-222.8 295,-222.8 295,-170.8 189,-170.8"/>
</g>
<g id="clust6" class="cluster">
<title>cluster_AuthModule_providers</title>
<polygon fill="none" stroke="black" points="16,-40.8 16,-92.8 443,-92.8 443,-40.8 16,-40.8"/>
</g>
<!-- AuthService  -->
<g id="node1" class="node">
<title>AuthService </title>
<polygon fill="#fb8072" stroke="black" points="286.98,-214.8 197.02,-214.8 197.02,-178.8 286.98,-178.8 286.98,-214.8"/>
<text text-anchor="middle" x="242" y="-192.6" font-family="Times,serif" font-size="14.00">AuthService </text>
</g>
<!-- AuthModule -->
<g id="node2" class="node">
<title>AuthModule</title>
<polygon fill="#8dd3c7" stroke="black" points="285.55,-149.8 282.55,-153.8 261.55,-153.8 258.55,-149.8 198.45,-149.8 198.45,-113.8 285.55,-113.8 285.55,-149.8"/>
<text text-anchor="middle" x="242" y="-127.6" font-family="Times,serif" font-size="14.00">AuthModule</text>
</g>
<!-- AuthModule&#45;&gt;AuthService  -->
<g id="edge1" class="edge">
<title>AuthModule&#45;&gt;AuthService </title>
<path fill="none" stroke="black" stroke-dasharray="5,2" d="M242,-149.91C242,-149.91 242,-168.79 242,-168.79"/>
<polygon fill="black" stroke="black" points="238.5,-168.79 242,-178.79 245.5,-168.79 238.5,-168.79"/>
</g>
<!-- AuthService -->
<g id="node3" class="node">
<title>AuthService</title>
<ellipse fill="#fdb462" stroke="black" cx="376" cy="-66.8" rx="59.11" ry="18"/>
<text text-anchor="middle" x="376" y="-62.6" font-family="Times,serif" font-size="14.00">AuthService</text>
</g>
<!-- AuthService&#45;&gt;AuthModule -->
<g id="edge2" class="edge">
<title>AuthService&#45;&gt;AuthModule</title>
<path fill="none" stroke="black" d="M376,-84.91C376,-104.14 376,-131.8 376,-131.8 376,-131.8 295.88,-131.8 295.88,-131.8"/>
<polygon fill="black" stroke="black" points="295.88,-128.3 285.88,-131.8 295.88,-135.3 295.88,-128.3"/>
</g>
<!-- JwtStrategy -->
<g id="node4" class="node">
<title>JwtStrategy</title>
<ellipse fill="#fdb462" stroke="black" cx="242" cy="-66.8" rx="56.76" ry="18"/>
<text text-anchor="middle" x="242" y="-62.6" font-family="Times,serif" font-size="14.00">JwtStrategy</text>
</g>
<!-- JwtStrategy&#45;&gt;AuthModule -->
<g id="edge3" class="edge">
<title>JwtStrategy&#45;&gt;AuthModule</title>
<path fill="none" stroke="black" d="M242,-84.91C242,-84.91 242,-103.79 242,-103.79"/>
<polygon fill="black" stroke="black" points="238.5,-103.79 242,-113.79 245.5,-103.79 238.5,-103.79"/>
</g>
<!-- UserRepository -->
<g id="node5" class="node">
<title>UserRepository</title>
<ellipse fill="#fdb462" stroke="black" cx="96" cy="-66.8" rx="71.79" ry="18"/>
<text text-anchor="middle" x="96" y="-62.6" font-family="Times,serif" font-size="14.00">UserRepository</text>
</g>
<!-- UserRepository&#45;&gt;AuthModule -->
<g id="edge4" class="edge">
<title>UserRepository&#45;&gt;AuthModule</title>
<path fill="none" stroke="black" d="M96,-84.91C96,-104.14 96,-131.8 96,-131.8 96,-131.8 188.2,-131.8 188.2,-131.8"/>
<polygon fill="black" stroke="black" points="188.2,-135.3 198.2,-131.8 188.2,-128.3 188.2,-135.3"/>
</g>
</g>
</svg>
