<?xml version="1.0" encoding="UTF-8" standalone="no"?>
<!DOCTYPE svg PUBLIC "-//W3C//DTD SVG 1.1//EN"
 "http://www.w3.org/Graphics/SVG/1.1/DTD/svg11.dtd">
<!-- Generated by graphviz version 2.47.3 (20210619.1520)
 -->
<!-- Title: dependencies Pages: 1 -->
<svg width="370pt" height="174pt"
 viewBox="0.00 0.00 370.00 173.80" xmlns="http://www.w3.org/2000/svg" xmlns:xlink="http://www.w3.org/1999/xlink">
<g id="graph0" class="graph" transform="scale(1 1) rotate(0) translate(4 169.8)">
<title>dependencies</title>
<polygon fill="white" stroke="transparent" points="-4,4 -4,-169.8 366,-169.8 366,4 -4,4"/>
<text text-anchor="middle" x="181" y="-8.2" font-family="sans-serif" font-size="14.00">dependencies</text>
<g id="clust1" class="cluster">
<title>cluster_AuthorModule</title>
<polygon fill="none" stroke="black" stroke-dasharray="1,5" points="8,-32.8 8,-157.8 354,-157.8 354,-32.8 8,-32.8"/>
</g>
<g id="clust6" class="cluster">
<title>cluster_AuthorModule_providers</title>
<polygon fill="none" stroke="black" points="16,-40.8 16,-92.8 346,-92.8 346,-40.8 16,-40.8"/>
</g>
<!-- AuthorRepository -->
<g id="node1" class="node">
<title>AuthorRepository</title>
<ellipse fill="#fdb462" stroke="black" cx="257" cy="-66.8" rx="80.54" ry="18"/>
<text text-anchor="middle" x="257" y="-62.6" font-family="Times,serif" font-size="14.00">AuthorRepository</text>
</g>
<!-- AuthorModule -->
<g id="node3" class="node">
<title>AuthorModule</title>
<polygon fill="#8dd3c7" stroke="black" points="223.71,-149.8 220.71,-153.8 199.71,-153.8 196.71,-149.8 124.29,-149.8 124.29,-113.8 223.71,-113.8 223.71,-149.8"/>
<text text-anchor="middle" x="174" y="-127.6" font-family="Times,serif" font-size="14.00">AuthorModule</text>
</g>
<!-- AuthorRepository&#45;&gt;AuthorModule -->
<g id="edge1" class="edge">
<title>AuthorRepository&#45;&gt;AuthorModule</title>
<path fill="none" stroke="black" d="M199.92,-79.64C199.92,-79.64 199.92,-103.32 199.92,-103.32"/>
<polygon fill="black" stroke="black" points="196.42,-103.32 199.92,-113.32 203.42,-103.32 196.42,-103.32"/>
</g>
<!-- AuthorService -->
<g id="node2" class="node">
<title>AuthorService</title>
<ellipse fill="#fdb462" stroke="black" cx="91" cy="-66.8" rx="67.19" ry="18"/>
<text text-anchor="middle" x="91" y="-62.6" font-family="Times,serif" font-size="14.00">AuthorService</text>
</g>
<!-- AuthorService&#45;&gt;AuthorModule -->
<g id="edge2" class="edge">
<title>AuthorService&#45;&gt;AuthorModule</title>
<path fill="none" stroke="black" d="M141.37,-79.03C141.37,-79.03 141.37,-103.48 141.37,-103.48"/>
<polygon fill="black" stroke="black" points="137.87,-103.48 141.37,-113.48 144.87,-103.48 137.87,-103.48"/>
</g>
</g>
</svg>
