<?xml version="1.0" encoding="UTF-8" standalone="no"?>
<!DOCTYPE svg PUBLIC "-//W3C//DTD SVG 1.1//EN"
 "http://www.w3.org/Graphics/SVG/1.1/DTD/svg11.dtd">
<!-- Generated by graphviz version 2.47.3 (20210619.1520)
 -->
<!-- Title: dependencies Pages: 1 -->
<svg width="2329pt" height="261pt"
 viewBox="0.00 0.00 2329.00 260.80" xmlns="http://www.w3.org/2000/svg" xmlns:xlink="http://www.w3.org/1999/xlink">
<g id="graph0" class="graph" transform="scale(1 1) rotate(0) translate(4 256.8)">
<title>dependencies</title>
<polygon fill="white" stroke="transparent" points="-4,4 -4,-256.8 2325,-256.8 2325,4 -4,4"/>
<text text-anchor="middle" x="1160.5" y="-8.2" font-family="sans-serif" font-size="14.00">dependencies</text>
<g id="clust1" class="cluster">
<title>cluster_AppModule</title>
<polygon fill="none" stroke="black" stroke-dasharray="1,5" points="708,-108.8 708,-236.8 1652,-236.8 1652,-108.8 708,-108.8"/>
</g>
<g id="clust3" class="cluster">
<title>cluster_AppModule_imports</title>
<polygon fill="none" stroke="black" points="716,-116.8 716,-168.8 1644,-168.8 1644,-116.8 716,-116.8"/>
</g>
<g id="clust7" class="cluster">
<title>cluster_AuthModule</title>
<polygon fill="none" stroke="black" stroke-dasharray="1,5" points="8,-32.8 8,-100.8 727,-100.8 727,-32.8 8,-32.8"/>
</g>
<g id="clust10" class="cluster">
<title>cluster_AuthModule_exports</title>
<polygon fill="none" stroke="black" points="16,-40.8 16,-92.8 122,-92.8 122,-40.8 16,-40.8"/>
</g>
<g id="clust12" class="cluster">
<title>cluster_AuthModule_providers</title>
<polygon fill="none" stroke="black" points="130,-40.8 130,-92.8 719,-92.8 719,-40.8 130,-40.8"/>
</g>
<g id="clust13" class="cluster">
<title>cluster_AuthorModule</title>
<polygon fill="none" stroke="black" stroke-dasharray="1,5" points="735,-32.8 735,-100.8 1081,-100.8 1081,-32.8 735,-32.8"/>
</g>
<g id="clust18" class="cluster">
<title>cluster_AuthorModule_providers</title>
<polygon fill="none" stroke="black" points="743,-40.8 743,-92.8 1073,-92.8 1073,-40.8 743,-40.8"/>
</g>
<g id="clust19" class="cluster">
<title>cluster_BookModule</title>
<polygon fill="none" stroke="black" stroke-dasharray="1,5" points="1089,-32.8 1089,-100.8 1409,-100.8 1409,-32.8 1089,-32.8"/>
</g>
<g id="clust24" class="cluster">
<title>cluster_BookModule_providers</title>
<polygon fill="none" stroke="black" points="1097,-40.8 1097,-92.8 1401,-92.8 1401,-40.8 1097,-40.8"/>
</g>
<g id="clust25" class="cluster">
<title>cluster_CategoryModule</title>
<polygon fill="none" stroke="black" stroke-dasharray="1,5" points="1417,-32.8 1417,-100.8 1795,-100.8 1795,-32.8 1417,-32.8"/>
</g>
<g id="clust30" class="cluster">
<title>cluster_CategoryModule_providers</title>
<polygon fill="none" stroke="black" points="1425,-40.8 1425,-92.8 1787,-92.8 1787,-40.8 1425,-40.8"/>
</g>
<g id="clust31" class="cluster">
<title>cluster_ConfigModule</title>
<polygon fill="none" stroke="black" stroke-dasharray="1,5" points="1660,-176.8 1660,-244.8 1792,-244.8 1792,-176.8 1660,-176.8"/>
</g>
<g id="clust34" class="cluster">
<title>cluster_ConfigModule_exports</title>
<polygon fill="none" stroke="black" points="1668,-184.8 1668,-236.8 1784,-236.8 1784,-184.8 1668,-184.8"/>
</g>
<g id="clust37" class="cluster">
<title>cluster_DatabaseModule</title>
<polygon fill="none" stroke="black" stroke-dasharray="1,5" points="1800,-176.8 1800,-244.8 2118,-244.8 2118,-176.8 1800,-176.8"/>
</g>
<g id="clust40" class="cluster">
<title>cluster_DatabaseModule_exports</title>
<polygon fill="none" stroke="black" points="1982,-184.8 1982,-236.8 2110,-236.8 2110,-184.8 1982,-184.8"/>
</g>
<g id="clust42" class="cluster">
<title>cluster_DatabaseModule_providers</title>
<polygon fill="none" stroke="black" points="1808,-184.8 1808,-236.8 1974,-236.8 1974,-184.8 1808,-184.8"/>
</g>
<g id="clust43" class="cluster">
<title>cluster_ReviewModule</title>
<polygon fill="none" stroke="black" stroke-dasharray="1,5" points="1803,-32.8 1803,-100.8 2157,-100.8 2157,-32.8 1803,-32.8"/>
</g>
<g id="clust48" class="cluster">
<title>cluster_ReviewModule_providers</title>
<polygon fill="none" stroke="black" points="1811,-40.8 1811,-92.8 2149,-92.8 2149,-40.8 1811,-40.8"/>
</g>
<g id="clust49" class="cluster">
<title>cluster_UserModule</title>
<polygon fill="none" stroke="black" stroke-dasharray="1,5" points="2165,-32.8 2165,-100.8 2313,-100.8 2313,-32.8 2165,-32.8"/>
</g>
<g id="clust54" class="cluster">
<title>cluster_UserModule_providers</title>
<polygon fill="none" stroke="black" points="2173,-40.8 2173,-92.8 2305,-92.8 2305,-40.8 2173,-40.8"/>
</g>
<!-- AuthModule -->
<g id="node1" class="node">
<title>AuthModule</title>
<polygon fill="#8dd3c7" stroke="black" points="811.55,-160.8 808.55,-164.8 787.55,-164.8 784.55,-160.8 724.45,-160.8 724.45,-124.8 811.55,-124.8 811.55,-160.8"/>
<text text-anchor="middle" x="768" y="-138.6" font-family="Times,serif" font-size="14.00">AuthModule</text>
</g>
<!-- AppModule -->
<g id="node9" class="node">
<title>AppModule</title>
<polygon fill="#8dd3c7" stroke="black" points="1197.66,-228.8 1194.66,-232.8 1173.66,-232.8 1170.66,-228.8 1114.34,-228.8 1114.34,-192.8 1197.66,-192.8 1197.66,-228.8"/>
<text text-anchor="middle" x="1156" y="-206.6" font-family="Times,serif" font-size="14.00">AppModule</text>
</g>
<!-- AuthModule&#45;&gt;AppModule -->
<g id="edge1" class="edge">
<title>AuthModule&#45;&gt;AppModule</title>
<path fill="none" stroke="black" d="M768,-161.05C768,-183.82 768,-219.8 768,-219.8 768,-219.8 1104.11,-219.8 1104.11,-219.8"/>
<polygon fill="black" stroke="black" points="1104.11,-223.3 1114.11,-219.8 1104.11,-216.3 1104.11,-223.3"/>
</g>
<!-- AuthService  -->
<g id="node10" class="node">
<title>AuthService </title>
<polygon fill="#fb8072" stroke="black" points="113.98,-84.8 24.02,-84.8 24.02,-48.8 113.98,-48.8 113.98,-84.8"/>
<text text-anchor="middle" x="69" y="-62.6" font-family="Times,serif" font-size="14.00">AuthService </text>
</g>
<!-- AuthModule&#45;&gt;AuthService  -->
<g id="edge9" class="edge">
<title>AuthModule&#45;&gt;AuthService </title>
<path fill="none" stroke="black" stroke-dasharray="5,2" d="M724.27,-153.8C571.25,-153.8 69,-153.8 69,-153.8 69,-153.8 69,-94.83 69,-94.83"/>
<polygon fill="black" stroke="black" points="72.5,-94.83 69,-84.83 65.5,-94.83 72.5,-94.83"/>
</g>
<!-- AuthorModule -->
<g id="node2" class="node">
<title>AuthorModule</title>
<polygon fill="#8dd3c7" stroke="black" points="1033.71,-160.8 1030.71,-164.8 1009.71,-164.8 1006.71,-160.8 934.29,-160.8 934.29,-124.8 1033.71,-124.8 1033.71,-160.8"/>
<text text-anchor="middle" x="984" y="-138.6" font-family="Times,serif" font-size="14.00">AuthorModule</text>
</g>
<!-- AuthorModule&#45;&gt;AppModule -->
<g id="edge2" class="edge">
<title>AuthorModule&#45;&gt;AppModule</title>
<path fill="none" stroke="black" d="M984,-160.82C984,-178.17 984,-201.8 984,-201.8 984,-201.8 1103.92,-201.8 1103.92,-201.8"/>
<polygon fill="black" stroke="black" points="1103.92,-205.3 1113.92,-201.8 1103.92,-198.3 1103.92,-205.3"/>
</g>
<!-- BookModule -->
<g id="node3" class="node">
<title>BookModule</title>
<polygon fill="#8dd3c7" stroke="black" points="1141.89,-160.8 1138.89,-164.8 1117.89,-164.8 1114.89,-160.8 1052.11,-160.8 1052.11,-124.8 1141.89,-124.8 1141.89,-160.8"/>
<text text-anchor="middle" x="1097" y="-138.6" font-family="Times,serif" font-size="14.00">BookModule</text>
</g>
<!-- BookModule&#45;&gt;AppModule -->
<g id="edge3" class="edge">
<title>BookModule&#45;&gt;AppModule</title>
<path fill="none" stroke="black" d="M1128.06,-161.02C1128.06,-161.02 1128.06,-182.53 1128.06,-182.53"/>
<polygon fill="black" stroke="black" points="1124.56,-182.53 1128.06,-192.53 1131.56,-182.53 1124.56,-182.53"/>
</g>
<!-- CategoryModule -->
<g id="node4" class="node">
<title>CategoryModule</title>
<polygon fill="#8dd3c7" stroke="black" points="1270.37,-160.8 1267.37,-164.8 1246.37,-164.8 1243.37,-160.8 1159.63,-160.8 1159.63,-124.8 1270.37,-124.8 1270.37,-160.8"/>
<text text-anchor="middle" x="1215" y="-138.6" font-family="Times,serif" font-size="14.00">CategoryModule</text>
</g>
<!-- CategoryModule&#45;&gt;AppModule -->
<g id="edge4" class="edge">
<title>CategoryModule&#45;&gt;AppModule</title>
<path fill="none" stroke="black" d="M1178.7,-161.02C1178.7,-161.02 1178.7,-182.53 1178.7,-182.53"/>
<polygon fill="black" stroke="black" points="1175.2,-182.53 1178.7,-192.53 1182.2,-182.53 1175.2,-182.53"/>
</g>
<!-- ConfigModule -->
<g id="node5" class="node">
<title>ConfigModule</title>
<polygon fill="#8dd3c7" stroke="black" points="1507.44,-160.8 1504.44,-164.8 1483.44,-164.8 1480.44,-160.8 1408.56,-160.8 1408.56,-124.8 1507.44,-124.8 1507.44,-160.8"/>
<text text-anchor="middle" x="1458" y="-138.6" font-family="Times,serif" font-size="14.00">ConfigModule</text>
</g>
<!-- ConfigModule&#45;&gt;AppModule -->
<g id="edge5" class="edge">
<title>ConfigModule&#45;&gt;AppModule</title>
<path fill="none" stroke="black" d="M1441.59,-160.97C1441.59,-182.3 1441.59,-214.8 1441.59,-214.8 1441.59,-214.8 1207.83,-214.8 1207.83,-214.8"/>
<polygon fill="black" stroke="black" points="1207.83,-211.3 1197.83,-214.8 1207.83,-218.3 1207.83,-211.3"/>
</g>
<!-- ConfigService  -->
<g id="node21" class="node">
<title>ConfigService </title>
<polygon fill="#fb8072" stroke="black" points="1776.37,-228.8 1675.63,-228.8 1675.63,-192.8 1776.37,-192.8 1776.37,-228.8"/>
<text text-anchor="middle" x="1726" y="-206.6" font-family="Times,serif" font-size="14.00">ConfigService </text>
</g>
<!-- ConfigModule&#45;&gt;ConfigService  -->
<g id="edge20" class="edge">
<title>ConfigModule&#45;&gt;ConfigService </title>
<path fill="none" stroke="black" stroke-dasharray="5,2" d="M1474.41,-160.83C1474.41,-177.86 1474.41,-200.8 1474.41,-200.8 1474.41,-200.8 1665.69,-200.8 1665.69,-200.8"/>
<polygon fill="black" stroke="black" points="1665.69,-204.3 1675.69,-200.8 1665.69,-197.3 1665.69,-204.3"/>
</g>
<!-- DatabaseModule -->
<g id="node6" class="node">
<title>DatabaseModule</title>
<polygon fill="#8dd3c7" stroke="black" points="1636.35,-160.8 1633.35,-164.8 1612.35,-164.8 1609.35,-160.8 1525.65,-160.8 1525.65,-124.8 1636.35,-124.8 1636.35,-160.8"/>
<text text-anchor="middle" x="1581" y="-138.6" font-family="Times,serif" font-size="14.00">DatabaseModule</text>
</g>
<!-- DatabaseModule&#45;&gt;AppModule -->
<g id="edge6" class="edge">
<title>DatabaseModule&#45;&gt;AppModule</title>
<path fill="none" stroke="black" d="M1581,-161.12C1581,-184.46 1581,-221.8 1581,-221.8 1581,-221.8 1207.91,-221.8 1207.91,-221.8"/>
<polygon fill="black" stroke="black" points="1207.91,-218.3 1197.91,-221.8 1207.91,-225.3 1207.91,-218.3"/>
</g>
<!-- DatabaseService  -->
<g id="node22" class="node">
<title>DatabaseService </title>
<polygon fill="#fb8072" stroke="black" points="2102.28,-228.8 1989.72,-228.8 1989.72,-192.8 2102.28,-192.8 2102.28,-228.8"/>
<text text-anchor="middle" x="2046" y="-206.6" font-family="Times,serif" font-size="14.00">DatabaseService </text>
</g>
<!-- DatabaseModule&#45;&gt;DatabaseService  -->
<g id="edge21" class="edge">
<title>DatabaseModule&#45;&gt;DatabaseService </title>
<path fill="none" stroke="black" stroke-dasharray="5,2" d="M1636.63,-136.8C1760.05,-136.8 2046,-136.8 2046,-136.8 2046,-136.8 2046,-182.51 2046,-182.51"/>
<polygon fill="black" stroke="black" points="2042.5,-182.51 2046,-192.51 2049.5,-182.51 2042.5,-182.51"/>
</g>
<!-- ReviewModule -->
<g id="node7" class="node">
<title>ReviewModule</title>
<polygon fill="#8dd3c7" stroke="black" points="1391.31,-160.8 1388.31,-164.8 1367.31,-164.8 1364.31,-160.8 1288.69,-160.8 1288.69,-124.8 1391.31,-124.8 1391.31,-160.8"/>
<text text-anchor="middle" x="1340" y="-138.6" font-family="Times,serif" font-size="14.00">ReviewModule</text>
</g>
<!-- ReviewModule&#45;&gt;AppModule -->
<g id="edge7" class="edge">
<title>ReviewModule&#45;&gt;AppModule</title>
<path fill="none" stroke="black" d="M1340,-160.91C1340,-180.14 1340,-207.8 1340,-207.8 1340,-207.8 1207.75,-207.8 1207.75,-207.8"/>
<polygon fill="black" stroke="black" points="1207.75,-204.3 1197.75,-207.8 1207.75,-211.3 1207.75,-204.3"/>
</g>
<!-- UserModule -->
<g id="node8" class="node">
<title>UserModule</title>
<polygon fill="#8dd3c7" stroke="black" points="915.98,-160.8 912.98,-164.8 891.98,-164.8 888.98,-160.8 830.02,-160.8 830.02,-124.8 915.98,-124.8 915.98,-160.8"/>
<text text-anchor="middle" x="873" y="-138.6" font-family="Times,serif" font-size="14.00">UserModule</text>
</g>
<!-- UserModule&#45;&gt;AppModule -->
<g id="edge8" class="edge">
<title>UserModule&#45;&gt;AppModule</title>
<path fill="none" stroke="black" d="M873,-161.02C873,-181.17 873,-210.8 873,-210.8 873,-210.8 1104.24,-210.8 1104.24,-210.8"/>
<polygon fill="black" stroke="black" points="1104.24,-214.3 1114.24,-210.8 1104.24,-207.3 1104.24,-214.3"/>
</g>
<!-- AuthService -->
<g id="node11" class="node">
<title>AuthService</title>
<ellipse fill="#fdb462" stroke="black" cx="490" cy="-66.8" rx="59.11" ry="18"/>
<text text-anchor="middle" x="490" y="-62.6" font-family="Times,serif" font-size="14.00">AuthService</text>
</g>
<!-- AuthService&#45;&gt;AuthModule -->
<g id="edge10" class="edge">
<title>AuthService&#45;&gt;AuthModule</title>
<path fill="none" stroke="black" d="M490,-84.83C490,-104.38 490,-132.8 490,-132.8 490,-132.8 714.26,-132.8 714.26,-132.8"/>
<polygon fill="black" stroke="black" points="714.26,-136.3 724.26,-132.8 714.26,-129.3 714.26,-136.3"/>
</g>
<!-- GoogleStrategy -->
<g id="node12" class="node">
<title>GoogleStrategy</title>
<ellipse fill="#fdb462" stroke="black" cx="341" cy="-66.8" rx="71.79" ry="18"/>
<text text-anchor="middle" x="341" y="-62.6" font-family="Times,serif" font-size="14.00">GoogleStrategy</text>
</g>
<!-- GoogleStrategy&#45;&gt;AuthModule -->
<g id="edge11" class="edge">
<title>GoogleStrategy&#45;&gt;AuthModule</title>
<path fill="none" stroke="black" d="M341,-84.84C341,-106.46 341,-139.8 341,-139.8 341,-139.8 714.31,-139.8 714.31,-139.8"/>
<polygon fill="black" stroke="black" points="714.31,-143.3 724.31,-139.8 714.31,-136.3 714.31,-143.3"/>
</g>
<!-- JwtStrategy -->
<g id="node13" class="node">
<title>JwtStrategy</title>
<ellipse fill="#fdb462" stroke="black" cx="195" cy="-66.8" rx="56.76" ry="18"/>
<text text-anchor="middle" x="195" y="-62.6" font-family="Times,serif" font-size="14.00">JwtStrategy</text>
</g>
<!-- JwtStrategy&#45;&gt;AuthModule -->
<g id="edge12" class="edge">
<title>JwtStrategy&#45;&gt;AuthModule</title>
<path fill="none" stroke="black" d="M195,-84.95C195,-108.56 195,-146.8 195,-146.8 195,-146.8 713.99,-146.8 713.99,-146.8"/>
<polygon fill="black" stroke="black" points="713.99,-150.3 723.99,-146.8 713.99,-143.3 713.99,-150.3"/>
</g>
<!-- UserRepository -->
<g id="node14" class="node">
<title>UserRepository</title>
<ellipse fill="#fdb462" stroke="black" cx="639" cy="-66.8" rx="71.79" ry="18"/>
<text text-anchor="middle" x="639" y="-62.6" font-family="Times,serif" font-size="14.00">UserRepository</text>
</g>
<!-- UserRepository&#45;&gt;AuthModule -->
<g id="edge13" class="edge">
<title>UserRepository&#45;&gt;AuthModule</title>
<path fill="none" stroke="black" d="M710.8,-66.8C725.94,-66.8 737.44,-66.8 737.44,-66.8 737.44,-66.8 737.44,-114.79 737.44,-114.79"/>
<polygon fill="black" stroke="black" points="733.94,-114.79 737.44,-124.79 740.94,-114.79 733.94,-114.79"/>
</g>
<!-- UserRepository&#45;&gt;UserModule -->
<g id="edge25" class="edge">
<title>UserRepository&#45;&gt;UserModule</title>
<path fill="none" stroke="black" d="M639,-85.08C639,-100.75 639,-120.8 639,-120.8 639,-120.8 848.46,-120.8 848.46,-120.8 848.46,-120.8 848.46,-121.18 848.46,-121.18"/>
<polygon fill="black" stroke="black" points="844.96,-114.63 848.46,-124.63 851.96,-114.63 844.96,-114.63"/>
</g>
<!-- AuthorRepository -->
<g id="node15" class="node">
<title>AuthorRepository</title>
<ellipse fill="#fdb462" stroke="black" cx="984" cy="-66.8" rx="80.54" ry="18"/>
<text text-anchor="middle" x="984" y="-62.6" font-family="Times,serif" font-size="14.00">AuthorRepository</text>
</g>
<!-- AuthorRepository&#45;&gt;AuthorModule -->
<g id="edge14" class="edge">
<title>AuthorRepository&#45;&gt;AuthorModule</title>
<path fill="none" stroke="black" d="M1000.53,-84.43C1000.53,-84.43 1000.53,-114.74 1000.53,-114.74"/>
<polygon fill="black" stroke="black" points="997.03,-114.74 1000.53,-124.74 1004.03,-114.74 997.03,-114.74"/>
</g>
<!-- AuthorService -->
<g id="node16" class="node">
<title>AuthorService</title>
<ellipse fill="#fdb462" stroke="black" cx="818" cy="-66.8" rx="67.19" ry="18"/>
<text text-anchor="middle" x="818" y="-62.6" font-family="Times,serif" font-size="14.00">AuthorService</text>
</g>
<!-- AuthorService&#45;&gt;AuthorModule -->
<g id="edge15" class="edge">
<title>AuthorService&#45;&gt;AuthorModule</title>
<path fill="none" stroke="black" d="M866.9,-79.42C866.9,-94.23 866.9,-116.8 866.9,-116.8 866.9,-116.8 967.47,-116.8 967.47,-116.8 967.47,-116.8 967.47,-117.59 967.47,-117.59"/>
<polygon fill="black" stroke="black" points="963.97,-114.74 967.47,-124.74 970.97,-114.74 963.97,-114.74"/>
</g>
<!-- BookRepository -->
<g id="node17" class="node">
<title>BookRepository</title>
<ellipse fill="#fdb462" stroke="black" cx="1319" cy="-66.8" rx="74.18" ry="18"/>
<text text-anchor="middle" x="1319" y="-62.6" font-family="Times,serif" font-size="14.00">BookRepository</text>
</g>
<!-- BookRepository&#45;&gt;BookModule -->
<g id="edge16" class="edge">
<title>BookRepository&#45;&gt;BookModule</title>
<path fill="none" stroke="black" d="M1251.1,-74.18C1251.1,-82.17 1251.1,-93.8 1251.1,-93.8 1251.1,-93.8 1129.66,-93.8 1129.66,-93.8 1129.66,-93.8 1129.66,-114.55 1129.66,-114.55"/>
<polygon fill="black" stroke="black" points="1126.16,-114.55 1129.66,-124.55 1133.16,-114.55 1126.16,-114.55"/>
</g>
<!-- BookService -->
<g id="node18" class="node">
<title>BookService</title>
<ellipse fill="#fdb462" stroke="black" cx="1166" cy="-66.8" rx="60.84" ry="18"/>
<text text-anchor="middle" x="1166" y="-62.6" font-family="Times,serif" font-size="14.00">BookService</text>
</g>
<!-- BookService&#45;&gt;BookModule -->
<g id="edge17" class="edge">
<title>BookService&#45;&gt;BookModule</title>
<path fill="none" stroke="black" d="M1117.37,-77.69C1117.37,-77.69 1117.37,-114.59 1117.37,-114.59"/>
<polygon fill="black" stroke="black" points="1113.87,-114.59 1117.37,-124.59 1120.87,-114.59 1113.87,-114.59"/>
</g>
<!-- CategoryRepository -->
<g id="node19" class="node">
<title>CategoryRepository</title>
<ellipse fill="#fdb462" stroke="black" cx="1690" cy="-66.8" rx="88.63" ry="18"/>
<text text-anchor="middle" x="1690" y="-62.6" font-family="Times,serif" font-size="14.00">CategoryRepository</text>
</g>
<!-- CategoryRepository&#45;&gt;CategoryModule -->
<g id="edge18" class="edge">
<title>CategoryRepository&#45;&gt;CategoryModule</title>
<path fill="none" stroke="black" d="M1618.81,-77.8C1618.81,-88.38 1618.81,-102.8 1618.81,-102.8 1618.81,-102.8 1263.99,-102.8 1263.99,-102.8 1263.99,-102.8 1263.99,-114.67 1263.99,-114.67"/>
<polygon fill="black" stroke="black" points="1260.49,-114.67 1263.99,-124.67 1267.49,-114.67 1260.49,-114.67"/>
</g>
<!-- CategoryService -->
<g id="node20" class="node">
<title>CategoryService</title>
<ellipse fill="#fdb462" stroke="black" cx="1508" cy="-66.8" rx="75.28" ry="18"/>
<text text-anchor="middle" x="1508" y="-62.6" font-family="Times,serif" font-size="14.00">CategoryService</text>
</g>
<!-- CategoryService&#45;&gt;CategoryModule -->
<g id="edge19" class="edge">
<title>CategoryService&#45;&gt;CategoryModule</title>
<path fill="none" stroke="black" d="M1469.91,-82.43C1469.91,-90.55 1469.91,-98.8 1469.91,-98.8 1469.91,-98.8 1257.55,-98.8 1257.55,-98.8 1257.55,-98.8 1257.55,-114.65 1257.55,-114.65"/>
<polygon fill="black" stroke="black" points="1254.05,-114.65 1257.55,-124.65 1261.05,-114.65 1254.05,-114.65"/>
</g>
<!-- DatabaseService -->
<g id="node23" class="node">
<title>DatabaseService</title>
<ellipse fill="#fdb462" stroke="black" cx="1891" cy="-210.8" rx="75.26" ry="18"/>
<text text-anchor="middle" x="1891" y="-206.6" font-family="Times,serif" font-size="14.00">DatabaseService</text>
</g>
<!-- DatabaseService&#45;&gt;DatabaseModule -->
<g id="edge22" class="edge">
<title>DatabaseService&#45;&gt;DatabaseModule</title>
<path fill="none" stroke="black" d="M1911.16,-193.2C1911.16,-174.87 1911.16,-148.8 1911.16,-148.8 1911.16,-148.8 1646.63,-148.8 1646.63,-148.8"/>
<polygon fill="black" stroke="black" points="1646.63,-145.3 1636.63,-148.8 1646.63,-152.3 1646.63,-145.3"/>
</g>
<!-- ReviewRepository -->
<g id="node24" class="node">
<title>ReviewRepository</title>
<ellipse fill="#fdb462" stroke="black" cx="2058" cy="-66.8" rx="82.82" ry="18"/>
<text text-anchor="middle" x="2058" y="-62.6" font-family="Times,serif" font-size="14.00">ReviewRepository</text>
</g>
<!-- ReviewRepository&#45;&gt;ReviewModule -->
<g id="edge23" class="edge">
<title>ReviewRepository&#45;&gt;ReviewModule</title>
<path fill="none" stroke="black" d="M1982.35,-74.23C1982.35,-87.01 1982.35,-111.8 1982.35,-111.8 1982.35,-111.8 1357.05,-111.8 1357.05,-111.8 1357.05,-111.8 1357.05,-114.77 1357.05,-114.77"/>
<polygon fill="black" stroke="black" points="1353.55,-114.77 1357.05,-124.77 1360.55,-114.77 1353.55,-114.77"/>
</g>
<!-- ReviewService -->
<g id="node25" class="node">
<title>ReviewService</title>
<ellipse fill="#fdb462" stroke="black" cx="1888" cy="-66.8" rx="69.48" ry="18"/>
<text text-anchor="middle" x="1888" y="-62.6" font-family="Times,serif" font-size="14.00">ReviewService</text>
</g>
<!-- ReviewService&#45;&gt;ReviewModule -->
<g id="edge24" class="edge">
<title>ReviewService&#45;&gt;ReviewModule</title>
<path fill="none" stroke="black" d="M1864.84,-83.95C1864.84,-95.19 1864.84,-107.8 1864.84,-107.8 1864.84,-107.8 1322.95,-107.8 1322.95,-107.8 1322.95,-107.8 1322.95,-114.48 1322.95,-114.48"/>
<polygon fill="black" stroke="black" points="1319.45,-114.48 1322.95,-124.48 1326.45,-114.48 1319.45,-114.48"/>
</g>
<!-- UserService -->
<g id="node26" class="node">
<title>UserService</title>
<ellipse fill="#fdb462" stroke="black" cx="2239" cy="-66.8" rx="58.44" ry="18"/>
<text text-anchor="middle" x="2239" y="-62.6" font-family="Times,serif" font-size="14.00">UserService</text>
</g>
<!-- UserService&#45;&gt;UserModule -->
<g id="edge26" class="edge">
<title>UserService&#45;&gt;UserModule</title>
<path fill="none" stroke="black" d="M2239,-84.92C2239,-87.77 2239,-89.8 2239,-89.8 2239,-89.8 909.61,-89.8 909.61,-89.8 909.61,-89.8 909.61,-114.56 909.61,-114.56"/>
<polygon fill="black" stroke="black" points="906.11,-114.56 909.61,-124.56 913.11,-114.56 906.11,-114.56"/>
</g>
</g>
</svg>
