<?xml version="1.0" encoding="UTF-8" standalone="no"?>
<!DOCTYPE svg PUBLIC "-//W3C//DTD SVG 1.1//EN"
 "http://www.w3.org/Graphics/SVG/1.1/DTD/svg11.dtd">
<!-- Generated by graphviz version 2.47.3 (20210619.1520)
 -->
<!-- Title: dependencies Pages: 1 -->
<svg width="847pt" height="174pt"
 viewBox="0.00 0.00 847.00 173.80" xmlns="http://www.w3.org/2000/svg" xmlns:xlink="http://www.w3.org/1999/xlink">
<g id="graph0" class="graph" transform="scale(1 1) rotate(0) translate(4 169.8)">
<title>dependencies</title>
<polygon fill="white" stroke="transparent" points="-4,4 -4,-169.8 843,-169.8 843,4 -4,4"/>
<text text-anchor="middle" x="419.5" y="-8.2" font-family="sans-serif" font-size="14.00">dependencies</text>
<g id="clust1" class="cluster">
<title>cluster_AppModule</title>
<polygon fill="none" stroke="black" stroke-dasharray="1,5" points="8,-32.8 8,-157.8 831,-157.8 831,-32.8 8,-32.8"/>
</g>
<g id="clust3" class="cluster">
<title>cluster_AppModule_imports</title>
<polygon fill="none" stroke="black" points="16,-40.8 16,-92.8 823,-92.8 823,-40.8 16,-40.8"/>
</g>
<!-- AuthModule -->
<g id="node1" class="node">
<title>AuthModule</title>
<polygon fill="#8dd3c7" stroke="black" points="814.55,-84.8 811.55,-88.8 790.55,-88.8 787.55,-84.8 727.45,-84.8 727.45,-48.8 814.55,-48.8 814.55,-84.8"/>
<text text-anchor="middle" x="771" y="-62.6" font-family="Times,serif" font-size="14.00">AuthModule</text>
</g>
<!-- AppModule -->
<g id="node8" class="node">
<title>AppModule</title>
<polygon fill="#8dd3c7" stroke="black" points="470.66,-149.8 467.66,-153.8 446.66,-153.8 443.66,-149.8 387.34,-149.8 387.34,-113.8 470.66,-113.8 470.66,-149.8"/>
<text text-anchor="middle" x="429" y="-127.6" font-family="Times,serif" font-size="14.00">AppModule</text>
</g>
<!-- AuthModule&#45;&gt;AppModule -->
<g id="edge1" class="edge">
<title>AuthModule&#45;&gt;AppModule</title>
<path fill="none" stroke="black" d="M771,-85.09C771,-107.01 771,-140.8 771,-140.8 771,-140.8 480.94,-140.8 480.94,-140.8"/>
<polygon fill="black" stroke="black" points="480.94,-137.3 470.94,-140.8 480.94,-144.3 480.94,-137.3"/>
</g>
<!-- AuthorModule -->
<g id="node2" class="node">
<title>AuthorModule</title>
<polygon fill="#8dd3c7" stroke="black" points="709.71,-84.8 706.71,-88.8 685.71,-88.8 682.71,-84.8 610.29,-84.8 610.29,-48.8 709.71,-48.8 709.71,-84.8"/>
<text text-anchor="middle" x="660" y="-62.6" font-family="Times,serif" font-size="14.00">AuthorModule</text>
</g>
<!-- AuthorModule&#45;&gt;AppModule -->
<g id="edge2" class="edge">
<title>AuthorModule&#45;&gt;AppModule</title>
<path fill="none" stroke="black" d="M660,-84.91C660,-104.14 660,-131.8 660,-131.8 660,-131.8 480.83,-131.8 480.83,-131.8"/>
<polygon fill="black" stroke="black" points="480.83,-128.3 470.83,-131.8 480.83,-135.3 480.83,-128.3"/>
</g>
<!-- BookModule -->
<g id="node3" class="node">
<title>BookModule</title>
<polygon fill="#8dd3c7" stroke="black" points="591.89,-84.8 588.89,-88.8 567.89,-88.8 564.89,-84.8 502.11,-84.8 502.11,-48.8 591.89,-48.8 591.89,-84.8"/>
<text text-anchor="middle" x="547" y="-62.6" font-family="Times,serif" font-size="14.00">BookModule</text>
</g>
<!-- BookModule&#45;&gt;AppModule -->
<g id="edge3" class="edge">
<title>BookModule&#45;&gt;AppModule</title>
<path fill="none" stroke="black" d="M547,-84.83C547,-101.2 547,-122.8 547,-122.8 547,-122.8 480.93,-122.8 480.93,-122.8"/>
<polygon fill="black" stroke="black" points="480.93,-119.3 470.93,-122.8 480.93,-126.3 480.93,-119.3"/>
</g>
<!-- CategoryModule -->
<g id="node4" class="node">
<title>CategoryModule</title>
<polygon fill="#8dd3c7" stroke="black" points="484.37,-84.8 481.37,-88.8 460.37,-88.8 457.37,-84.8 373.63,-84.8 373.63,-48.8 484.37,-48.8 484.37,-84.8"/>
<text text-anchor="middle" x="429" y="-62.6" font-family="Times,serif" font-size="14.00">CategoryModule</text>
</g>
<!-- CategoryModule&#45;&gt;AppModule -->
<g id="edge4" class="edge">
<title>CategoryModule&#45;&gt;AppModule</title>
<path fill="none" stroke="black" d="M429,-84.91C429,-84.91 429,-103.79 429,-103.79"/>
<polygon fill="black" stroke="black" points="425.5,-103.79 429,-113.79 432.5,-103.79 425.5,-103.79"/>
</g>
<!-- ConfigModule -->
<g id="node5" class="node">
<title>ConfigModule</title>
<polygon fill="#8dd3c7" stroke="black" points="355.44,-84.8 352.44,-88.8 331.44,-88.8 328.44,-84.8 256.56,-84.8 256.56,-48.8 355.44,-48.8 355.44,-84.8"/>
<text text-anchor="middle" x="306" y="-62.6" font-family="Times,serif" font-size="14.00">ConfigModule</text>
</g>
<!-- ConfigModule&#45;&gt;AppModule -->
<g id="edge5" class="edge">
<title>ConfigModule&#45;&gt;AppModule</title>
<path fill="none" stroke="black" d="M306,-84.83C306,-101.2 306,-122.8 306,-122.8 306,-122.8 377.01,-122.8 377.01,-122.8"/>
<polygon fill="black" stroke="black" points="377.01,-126.3 387.01,-122.8 377.01,-119.3 377.01,-126.3"/>
</g>
<!-- DatabaseModule -->
<g id="node6" class="node">
<title>DatabaseModule</title>
<polygon fill="#8dd3c7" stroke="black" points="238.35,-84.8 235.35,-88.8 214.35,-88.8 211.35,-84.8 127.65,-84.8 127.65,-48.8 238.35,-48.8 238.35,-84.8"/>
<text text-anchor="middle" x="183" y="-62.6" font-family="Times,serif" font-size="14.00">DatabaseModule</text>
</g>
<!-- DatabaseModule&#45;&gt;AppModule -->
<g id="edge6" class="edge">
<title>DatabaseModule&#45;&gt;AppModule</title>
<path fill="none" stroke="black" d="M183,-84.91C183,-104.14 183,-131.8 183,-131.8 183,-131.8 377.27,-131.8 377.27,-131.8"/>
<polygon fill="black" stroke="black" points="377.27,-135.3 387.27,-131.8 377.27,-128.3 377.27,-135.3"/>
</g>
<!-- UserModule -->
<g id="node7" class="node">
<title>UserModule</title>
<polygon fill="#8dd3c7" stroke="black" points="109.98,-84.8 106.98,-88.8 85.98,-88.8 82.98,-84.8 24.02,-84.8 24.02,-48.8 109.98,-48.8 109.98,-84.8"/>
<text text-anchor="middle" x="67" y="-62.6" font-family="Times,serif" font-size="14.00">UserModule</text>
</g>
<!-- UserModule&#45;&gt;AppModule -->
<g id="edge7" class="edge">
<title>UserModule&#45;&gt;AppModule</title>
<path fill="none" stroke="black" d="M67,-85.09C67,-107.01 67,-140.8 67,-140.8 67,-140.8 377.12,-140.8 377.12,-140.8"/>
<polygon fill="black" stroke="black" points="377.12,-144.3 387.12,-140.8 377.12,-137.3 377.12,-144.3"/>
</g>
</g>
</svg>
