<?xml version="1.0" encoding="UTF-8" standalone="no"?>
<!DOCTYPE svg PUBLIC "-//W3C//DTD SVG 1.1//EN"
 "http://www.w3.org/Graphics/SVG/1.1/DTD/svg11.dtd">
<!-- Generated by graphviz version 2.47.3 (20210619.1520)
 -->
<!-- Title: dependencies Pages: 1 -->
<svg width="968pt" height="174pt"
 viewBox="0.00 0.00 968.00 173.80" xmlns="http://www.w3.org/2000/svg" xmlns:xlink="http://www.w3.org/1999/xlink">
<g id="graph0" class="graph" transform="scale(1 1) rotate(0) translate(4 169.8)">
<title>dependencies</title>
<polygon fill="white" stroke="transparent" points="-4,4 -4,-169.8 964,-169.8 964,4 -4,4"/>
<text text-anchor="middle" x="480" y="-8.2" font-family="sans-serif" font-size="14.00">dependencies</text>
<g id="clust1" class="cluster">
<title>cluster_AppModule</title>
<polygon fill="none" stroke="black" stroke-dasharray="1,5" points="8,-32.8 8,-157.8 952,-157.8 952,-32.8 8,-32.8"/>
</g>
<g id="clust3" class="cluster">
<title>cluster_AppModule_imports</title>
<polygon fill="none" stroke="black" points="16,-40.8 16,-92.8 944,-92.8 944,-40.8 16,-40.8"/>
</g>
<!-- AuthModule -->
<g id="node1" class="node">
<title>AuthModule</title>
<polygon fill="#8dd3c7" stroke="black" points="935.55,-84.8 932.55,-88.8 911.55,-88.8 908.55,-84.8 848.45,-84.8 848.45,-48.8 935.55,-48.8 935.55,-84.8"/>
<text text-anchor="middle" x="892" y="-62.6" font-family="Times,serif" font-size="14.00">AuthModule</text>
</g>
<!-- AppModule -->
<g id="node9" class="node">
<title>AppModule</title>
<polygon fill="#8dd3c7" stroke="black" points="529.66,-149.8 526.66,-153.8 505.66,-153.8 502.66,-149.8 446.34,-149.8 446.34,-113.8 529.66,-113.8 529.66,-149.8"/>
<text text-anchor="middle" x="488" y="-127.6" font-family="Times,serif" font-size="14.00">AppModule</text>
</g>
<!-- AuthModule&#45;&gt;AppModule -->
<g id="edge1" class="edge">
<title>AuthModule&#45;&gt;AppModule</title>
<path fill="none" stroke="black" d="M892,-85.09C892,-107.01 892,-140.8 892,-140.8 892,-140.8 539.71,-140.8 539.71,-140.8"/>
<polygon fill="black" stroke="black" points="539.71,-137.3 529.71,-140.8 539.71,-144.3 539.71,-137.3"/>
</g>
<!-- AuthorModule -->
<g id="node2" class="node">
<title>AuthorModule</title>
<polygon fill="#8dd3c7" stroke="black" points="830.71,-84.8 827.71,-88.8 806.71,-88.8 803.71,-84.8 731.29,-84.8 731.29,-48.8 830.71,-48.8 830.71,-84.8"/>
<text text-anchor="middle" x="781" y="-62.6" font-family="Times,serif" font-size="14.00">AuthorModule</text>
</g>
<!-- AuthorModule&#45;&gt;AppModule -->
<g id="edge2" class="edge">
<title>AuthorModule&#45;&gt;AppModule</title>
<path fill="none" stroke="black" d="M781,-84.91C781,-104.14 781,-131.8 781,-131.8 781,-131.8 539.67,-131.8 539.67,-131.8"/>
<polygon fill="black" stroke="black" points="539.67,-128.3 529.67,-131.8 539.67,-135.3 539.67,-128.3"/>
</g>
<!-- BookModule -->
<g id="node3" class="node">
<title>BookModule</title>
<polygon fill="#8dd3c7" stroke="black" points="712.89,-84.8 709.89,-88.8 688.89,-88.8 685.89,-84.8 623.11,-84.8 623.11,-48.8 712.89,-48.8 712.89,-84.8"/>
<text text-anchor="middle" x="668" y="-62.6" font-family="Times,serif" font-size="14.00">BookModule</text>
</g>
<!-- BookModule&#45;&gt;AppModule -->
<g id="edge3" class="edge">
<title>BookModule&#45;&gt;AppModule</title>
<path fill="none" stroke="black" d="M668,-84.83C668,-101.2 668,-122.8 668,-122.8 668,-122.8 539.75,-122.8 539.75,-122.8"/>
<polygon fill="black" stroke="black" points="539.75,-119.3 529.75,-122.8 539.75,-126.3 539.75,-119.3"/>
</g>
<!-- CategoryModule -->
<g id="node4" class="node">
<title>CategoryModule</title>
<polygon fill="#8dd3c7" stroke="black" points="605.37,-84.8 602.37,-88.8 581.37,-88.8 578.37,-84.8 494.63,-84.8 494.63,-48.8 605.37,-48.8 605.37,-84.8"/>
<text text-anchor="middle" x="550" y="-62.6" font-family="Times,serif" font-size="14.00">CategoryModule</text>
</g>
<!-- CategoryModule&#45;&gt;AppModule -->
<g id="edge4" class="edge">
<title>CategoryModule&#45;&gt;AppModule</title>
<path fill="none" stroke="black" d="M512.2,-84.91C512.2,-84.91 512.2,-103.79 512.2,-103.79"/>
<polygon fill="black" stroke="black" points="508.7,-103.79 512.2,-113.79 515.7,-103.79 508.7,-103.79"/>
</g>
<!-- ConfigModule -->
<g id="node5" class="node">
<title>ConfigModule</title>
<polygon fill="#8dd3c7" stroke="black" points="476.44,-84.8 473.44,-88.8 452.44,-88.8 449.44,-84.8 377.56,-84.8 377.56,-48.8 476.44,-48.8 476.44,-84.8"/>
<text text-anchor="middle" x="427" y="-62.6" font-family="Times,serif" font-size="14.00">ConfigModule</text>
</g>
<!-- ConfigModule&#45;&gt;AppModule -->
<g id="edge5" class="edge">
<title>ConfigModule&#45;&gt;AppModule</title>
<path fill="none" stroke="black" d="M461.2,-84.91C461.2,-84.91 461.2,-103.79 461.2,-103.79"/>
<polygon fill="black" stroke="black" points="457.7,-103.79 461.2,-113.79 464.7,-103.79 457.7,-103.79"/>
</g>
<!-- DatabaseModule -->
<g id="node6" class="node">
<title>DatabaseModule</title>
<polygon fill="#8dd3c7" stroke="black" points="359.35,-84.8 356.35,-88.8 335.35,-88.8 332.35,-84.8 248.65,-84.8 248.65,-48.8 359.35,-48.8 359.35,-84.8"/>
<text text-anchor="middle" x="304" y="-62.6" font-family="Times,serif" font-size="14.00">DatabaseModule</text>
</g>
<!-- DatabaseModule&#45;&gt;AppModule -->
<g id="edge6" class="edge">
<title>DatabaseModule&#45;&gt;AppModule</title>
<path fill="none" stroke="black" d="M304,-84.83C304,-101.2 304,-122.8 304,-122.8 304,-122.8 436.25,-122.8 436.25,-122.8"/>
<polygon fill="black" stroke="black" points="436.25,-126.3 446.25,-122.8 436.25,-119.3 436.25,-126.3"/>
</g>
<!-- ReviewModule -->
<g id="node7" class="node">
<title>ReviewModule</title>
<polygon fill="#8dd3c7" stroke="black" points="230.31,-84.8 227.31,-88.8 206.31,-88.8 203.31,-84.8 127.69,-84.8 127.69,-48.8 230.31,-48.8 230.31,-84.8"/>
<text text-anchor="middle" x="179" y="-62.6" font-family="Times,serif" font-size="14.00">ReviewModule</text>
</g>
<!-- ReviewModule&#45;&gt;AppModule -->
<g id="edge7" class="edge">
<title>ReviewModule&#45;&gt;AppModule</title>
<path fill="none" stroke="black" d="M179,-84.91C179,-104.14 179,-131.8 179,-131.8 179,-131.8 436.33,-131.8 436.33,-131.8"/>
<polygon fill="black" stroke="black" points="436.33,-135.3 446.33,-131.8 436.33,-128.3 436.33,-135.3"/>
</g>
<!-- UserModule -->
<g id="node8" class="node">
<title>UserModule</title>
<polygon fill="#8dd3c7" stroke="black" points="109.98,-84.8 106.98,-88.8 85.98,-88.8 82.98,-84.8 24.02,-84.8 24.02,-48.8 109.98,-48.8 109.98,-84.8"/>
<text text-anchor="middle" x="67" y="-62.6" font-family="Times,serif" font-size="14.00">UserModule</text>
</g>
<!-- UserModule&#45;&gt;AppModule -->
<g id="edge8" class="edge">
<title>UserModule&#45;&gt;AppModule</title>
<path fill="none" stroke="black" d="M67,-85.09C67,-107.01 67,-140.8 67,-140.8 67,-140.8 436.09,-140.8 436.09,-140.8"/>
<polygon fill="black" stroke="black" points="436.09,-144.3 446.09,-140.8 436.09,-137.3 436.09,-144.3"/>
</g>
</g>
</svg>
