<?xml version="1.0" encoding="UTF-8" standalone="no"?>
<!DOCTYPE svg PUBLIC "-//W3C//DTD SVG 1.1//EN"
 "http://www.w3.org/Graphics/SVG/1.1/DTD/svg11.dtd">
<!-- Generated by graphviz version 2.47.3 (20210619.1520)
 -->
<!-- Title: dependencies Pages: 1 -->
<svg width="378pt" height="174pt"
 viewBox="0.00 0.00 378.00 173.80" xmlns="http://www.w3.org/2000/svg" xmlns:xlink="http://www.w3.org/1999/xlink">
<g id="graph0" class="graph" transform="scale(1 1) rotate(0) translate(4 169.8)">
<title>dependencies</title>
<polygon fill="white" stroke="transparent" points="-4,4 -4,-169.8 374,-169.8 374,4 -4,4"/>
<text text-anchor="middle" x="185" y="-8.2" font-family="sans-serif" font-size="14.00">dependencies</text>
<g id="clust1" class="cluster">
<title>cluster_ReviewModule</title>
<polygon fill="none" stroke="black" stroke-dasharray="1,5" points="8,-32.8 8,-157.8 362,-157.8 362,-32.8 8,-32.8"/>
</g>
<g id="clust6" class="cluster">
<title>cluster_ReviewModule_providers</title>
<polygon fill="none" stroke="black" points="16,-40.8 16,-92.8 354,-92.8 354,-40.8 16,-40.8"/>
</g>
<!-- ReviewRepository -->
<g id="node1" class="node">
<title>ReviewRepository</title>
<ellipse fill="#fdb462" stroke="black" cx="263" cy="-66.8" rx="82.82" ry="18"/>
<text text-anchor="middle" x="263" y="-62.6" font-family="Times,serif" font-size="14.00">ReviewRepository</text>
</g>
<!-- ReviewModule -->
<g id="node3" class="node">
<title>ReviewModule</title>
<polygon fill="#8dd3c7" stroke="black" points="229.31,-149.8 226.31,-153.8 205.31,-153.8 202.31,-149.8 126.69,-149.8 126.69,-113.8 229.31,-113.8 229.31,-149.8"/>
<text text-anchor="middle" x="178" y="-127.6" font-family="Times,serif" font-size="14.00">ReviewModule</text>
</g>
<!-- ReviewRepository&#45;&gt;ReviewModule -->
<g id="edge1" class="edge">
<title>ReviewRepository&#45;&gt;ReviewModule</title>
<path fill="none" stroke="black" d="M204.62,-79.64C204.62,-79.64 204.62,-103.32 204.62,-103.32"/>
<polygon fill="black" stroke="black" points="201.12,-103.32 204.62,-113.32 208.12,-103.32 201.12,-103.32"/>
</g>
<!-- ReviewService -->
<g id="node2" class="node">
<title>ReviewService</title>
<ellipse fill="#fdb462" stroke="black" cx="93" cy="-66.8" rx="69.48" ry="18"/>
<text text-anchor="middle" x="93" y="-62.6" font-family="Times,serif" font-size="14.00">ReviewService</text>
</g>
<!-- ReviewService&#45;&gt;ReviewModule -->
<g id="edge2" class="edge">
<title>ReviewService&#45;&gt;ReviewModule</title>
<path fill="none" stroke="black" d="M144.67,-79.03C144.67,-79.03 144.67,-103.48 144.67,-103.48"/>
<polygon fill="black" stroke="black" points="141.17,-103.48 144.67,-113.48 148.17,-103.48 141.17,-103.48"/>
</g>
</g>
</svg>
