<?xml version="1.0" encoding="UTF-8" standalone="no"?>
<!DOCTYPE svg PUBLIC "-//W3C//DTD SVG 1.1//EN"
 "http://www.w3.org/Graphics/SVG/1.1/DTD/svg11.dtd">
<!-- Generated by graphviz version 2.47.3 (20210619.1520)
 -->
<!-- Title: dependencies Pages: 1 -->
<svg width="344pt" height="174pt"
 viewBox="0.00 0.00 344.00 173.80" xmlns="http://www.w3.org/2000/svg" xmlns:xlink="http://www.w3.org/1999/xlink">
<g id="graph0" class="graph" transform="scale(1 1) rotate(0) translate(4 169.8)">
<title>dependencies</title>
<polygon fill="white" stroke="transparent" points="-4,4 -4,-169.8 340,-169.8 340,4 -4,4"/>
<text text-anchor="middle" x="168" y="-8.2" font-family="sans-serif" font-size="14.00">dependencies</text>
<g id="clust1" class="cluster">
<title>cluster_BookModule</title>
<polygon fill="none" stroke="black" stroke-dasharray="1,5" points="8,-32.8 8,-157.8 328,-157.8 328,-32.8 8,-32.8"/>
</g>
<g id="clust6" class="cluster">
<title>cluster_BookModule_providers</title>
<polygon fill="none" stroke="black" points="16,-40.8 16,-92.8 320,-92.8 320,-40.8 16,-40.8"/>
</g>
<!-- BookRepository -->
<g id="node1" class="node">
<title>BookRepository</title>
<ellipse fill="#fdb462" stroke="black" cx="238" cy="-66.8" rx="74.18" ry="18"/>
<text text-anchor="middle" x="238" y="-62.6" font-family="Times,serif" font-size="14.00">BookRepository</text>
</g>
<!-- BookModule -->
<g id="node3" class="node">
<title>BookModule</title>
<polygon fill="#8dd3c7" stroke="black" points="205.89,-149.8 202.89,-153.8 181.89,-153.8 178.89,-149.8 116.11,-149.8 116.11,-113.8 205.89,-113.8 205.89,-149.8"/>
<text text-anchor="middle" x="161" y="-127.6" font-family="Times,serif" font-size="14.00">BookModule</text>
</g>
<!-- BookRepository&#45;&gt;BookModule -->
<g id="edge1" class="edge">
<title>BookRepository&#45;&gt;BookModule</title>
<path fill="none" stroke="black" d="M184.8,-79.64C184.8,-79.64 184.8,-103.32 184.8,-103.32"/>
<polygon fill="black" stroke="black" points="181.3,-103.32 184.8,-113.32 188.3,-103.32 181.3,-103.32"/>
</g>
<!-- BookService -->
<g id="node2" class="node">
<title>BookService</title>
<ellipse fill="#fdb462" stroke="black" cx="85" cy="-66.8" rx="60.84" ry="18"/>
<text text-anchor="middle" x="85" y="-62.6" font-family="Times,serif" font-size="14.00">BookService</text>
</g>
<!-- BookService&#45;&gt;BookModule -->
<g id="edge2" class="edge">
<title>BookService&#45;&gt;BookModule</title>
<path fill="none" stroke="black" d="M130.99,-78.72C130.99,-78.72 130.99,-103.57 130.99,-103.57"/>
<polygon fill="black" stroke="black" points="127.49,-103.57 130.99,-113.57 134.49,-103.57 127.49,-103.57"/>
</g>
</g>
</svg>
